<svg width="100" height="100" viewBox="0 0 100 100" fill="none" xmlns="http://www.w3.org/2000/svg">
  <rect width="100" height="100" rx="8" fill="url(#paint0_linear_111_2)" />
  <rect x="20" y="65" width="60" height="15" rx="2" fill="#FEDE11" />
  <path d="M20 34C20 31.2386 22.2386 29 25 29V29C27.7614 29 30 31.2386 30 34V60H22C20.8954 60 20 59.1046 20 58V34Z"
    fill="white" />
  <path d="M30 25C30 22.2386 32.2386 20 35 20V20C37.7614 20 40 22.2386 40 25V60H30V25Z" fill="white" />
  <path d="M40 45C40 42.2386 42.2386 40 45 40V40C47.7614 40 50 42.2386 50 45V60H40V45Z" fill="white" />
  <path d="M50 39C50 36.2386 52.2386 34 55 34V34C57.7614 34 60 36.2386 60 39V60H50V39Z" fill="white" />
  <path d="M60 49C60 46.2386 62.2386 44 65 44V44C67.7614 44 70 46.2386 70 49V60H60V49Z" fill="white" />
  <path d="M70 40C70 37.2386 72.2386 35 75 35V35C77.7614 35 80 37.2386 80 40V58C80 59.1046 79.1046 60 78 60H70V40Z"
    fill="white" />
  <defs>
    <linearGradient id="paint0_linear_111_2" x1="-16" y1="-17" x2="118" y2="120" gradientUnits="userSpaceOnUse">
      <stop stop-color="#1B81FF" />
      <stop offset="1" stop-color="#004EAE" />
    </linearGradient>
  </defs>
</svg>
