<svg width="60" height="60" viewBox="0 0 60 60" fill="none" xmlns="http://www.w3.org/2000/svg">
<rect width="60" height="60" rx="8" fill="url(#paint0_linear_917_12)"/>
<rect x="12" y="39" width="36" height="9" rx="2" fill="#FEDE11"/>
<path d="M12 20.9C12 18.967 13.567 17.4 15.5 17.4V17.4C17.433 17.4 19 18.967 19 20.9V36H14C12.8954 36 12 35.1046 12 34V20.9Z" fill="white"/>
<path d="M18 15.5C18 13.567 19.567 12 21.5 12V12C23.433 12 25 13.567 25 15.5V36H18V15.5Z" fill="white"/>
<path d="M24 27.5C24 25.567 25.567 24 27.5 24V24C29.433 24 31 25.567 31 27.5V36H24V27.5Z" fill="white"/>
<path d="M30 23.9C30 21.967 31.567 20.4 33.5 20.4V20.4C35.433 20.4 37 21.967 37 23.9V36H30V23.9Z" fill="white"/>
<path d="M36 29.9C36 27.967 37.567 26.4 39.5 26.4V26.4C41.433 26.4 43 27.967 43 29.9V36H36V29.9Z" fill="white"/>
<path d="M41 24.5C41 22.567 42.567 21 44.5 21V21C46.433 21 48 22.567 48 24.5V34C48 35.1046 47.1046 36 46 36H41V24.5Z" fill="white"/>
<defs>
<linearGradient id="paint0_linear_917_12" x1="-9.6" y1="-10.2" x2="70.8" y2="72" gradientUnits="userSpaceOnUse">
<stop stop-color="#1B81FF"/>
<stop offset="1" stop-color="#004EAE"/>
</linearGradient>
</defs>
</svg>
